<svg xmlns="http://www.w3.org/2000/svg" version="1.1" xmlns:xlink="http://www.w3.org/1999/xlink" xmlns:svgjs="http://svgjs.dev/svgjs" width="1444" height="720" preserveAspectRatio="none" viewBox="0 0 1444 720">
    <g mask="url(&quot;#SvgjsMask1083&quot;)" fill="none">
        <rect width="1444" height="720" x="0" y="0" fill="rgba(98, 144, 195, 1)"></rect>
        <path d="M0,674.192C125.74,671.321,247.627,614.398,339.98,529.018C424.935,450.477,466.742,336.625,488.127,222.92C506.374,125.902,450.839,33.772,451.688,-64.943C452.757,-189.221,550.876,-317.451,493.723,-427.813C437.272,-536.818,295.735,-572.805,175.605,-598.055C61.267,-622.088,-53.501,-596.797,-166.356,-566.557C-281.707,-535.648,-398.781,-502.754,-485.693,-420.855C-577.74,-334.117,-668.767,-222.198,-665.978,-95.753C-663.226,29.027,-526.861,103.461,-471.659,215.4C-418.828,322.531,-435.728,461.487,-350.105,544.774C-259.075,633.321,-126.959,677.091,0,674.192" fill="#355d8a"></path>
        <path d="M1444 1091.06C1521.901 1111.807 1620.751 1142.315 1680.938 1088.682 1743.415 1033.009 1688.318 923.462 1719.31 845.73 1747.871 774.096 1842.916 738.105 1851.282 661.442 1859.961 581.909 1823.546 495.942 1763.212 443.401 1704.537 392.304 1617.982 399.288 1540.629 390.913 1475.973 383.912 1410.418 375.495 1349.635 398.622 1291.349 420.8 1251.9850000000001 471.147 1209.581 516.875 1165.68 564.219 1123.283 610.904 1097.782 670.221 1065.69 744.869 1003.171 832.381 1043.653 902.832 1085.253 975.2280000000001 1200.753 945.3969999999999 1276.315 980.923 1338.084 1009.9649999999999 1378.0430000000001 1073.4940000000001 1444 1091.06" fill="#acc5df"></path>
    </g>
    <defs>
        <mask id="SvgjsMask1083">
            <rect width="1444" height="720" fill="#ffffff"></rect>
        </mask>
    </defs>
</svg>