<svg xmlns="http://www.w3.org/2000/svg" version="1.1" xmlns:xlink="http://www.w3.org/1999/xlink" xmlns:svgjs="http://svgjs.dev/svgjs" width="1440" height="560" preserveAspectRatio="none" viewBox="0 0 1440 560">
    <g mask="url(&quot;#SvgjsMask1015&quot;)" fill="none">
        <rect width="1440" height="560" x="0" y="0" fill="rgba(17, 82, 137, 1)"></rect>
        <path d="M0,686.968C129.267,720.462,276.177,675.596,381.071,592.958C482.98,512.672,532.996,380.425,552,252.09C568.404,141.313,489.483,42.62,479.079,-68.881C467.86,-189.114,547.136,-317.864,488.944,-423.673C429.544,-531.677,302.794,-602.858,179.935,-612.802C61.948,-622.352,-26.227,-509.441,-139.333,-474.524C-250.133,-440.319,-400.249,-500.216,-474.171,-410.872C-548.459,-321.086,-474.142,-184.878,-475.394,-68.351C-476.447,29.643,-518.342,129.056,-480.947,219.641C-443.059,311.419,-343.486,354.476,-272.276,423.67C-179.856,513.473,-124.745,654.646,0,686.968" fill="#0b3559"></path>
        <path d="M1440 1087.388C1540.979 1080.4650000000001 1637.95 1054.991 1725.762 1004.655 1817.051 952.326 1890.908 879.477 1952.0729999999999 793.856 2024.7350000000001 692.142 2136.424 586 2112.4809999999998 463.312 2088.376 339.796 1925.3519999999999 305.807 1838.968 214.29199999999997 1757.699 128.19600000000003 1726.664-3.3239999999999554 1621.209-57.14099999999996 1508.458-114.68100000000004 1364.055-141.61900000000003 1250.278-86.13400000000001 1137.906-31.333999999999946 1127.82 124.18099999999998 1049.5230000000001 221.649 975.4110000000001 313.908 832.803 353.711 804.619 468.646 776.252 584.33 848.629 699.569 906.849 803.482 961.374 900.8009999999999 1029.433 993.213 1127.895 1045.645 1222.455 1095.999 1333.12 1094.716 1440 1087.388" fill="#176fb9"></path>
    </g>
    <defs>
        <mask id="SvgjsMask1015">
            <rect width="1440" height="560" fill="#ffffff"></rect>
        </mask>
    </defs>
</svg>