<svg xmlns="http://www.w3.org/2000/svg" version="1.1" xmlns:xlink="http://www.w3.org/1999/xlink" xmlns:svgjs="http://svgjs.com/svgjs" width="1440" height="560" preserveAspectRatio="none" viewBox="0 0 1440 560">
    <g mask="url(&quot;#SvgjsMask1016&quot;)" fill="none">
        <rect width="1440" height="560" x="0" y="0" fill="#0e2a47"></rect>
        <path d="M0,622.806C116.779,621.737,216.284,551.847,319.318,496.869C431.552,436.982,566.358,397.983,628.92,287.218C692.813,174.096,703.74,25.709,652.984,-93.885C604.809,-207.396,468.431,-246.018,370.7,-321.213C294.807,-379.606,231.112,-449.333,142.823,-486.41C46.217,-526.98,-58.089,-569.444,-159.722,-543.963C-262.59,-518.172,-342.985,-436.696,-403.322,-349.481C-459.805,-267.837,-479.015,-169.01,-487.547,-70.099C-495.692,24.32,-477.397,114.987,-451.247,206.078C-420.909,311.757,-403.869,428.153,-323.096,502.747C-236.945,582.308,-117.264,623.879,0,622.806" fill="#0b2239"></path>
        <path d="M1440 1071.931C1544.215 1062.502 1656.376 1090.211 1745.356 1035.144 1834.786 979.798 1870.234 872.0740000000001 1915.969 777.3679999999999 1962.6970000000001 680.606 2032.042 583.416 2014.7179999999998 477.368 1997.4560000000001 371.70500000000004 1886.136 314.13800000000003 1825.841 225.66699999999997 1755.133 121.91699999999997 1741.18-28.764999999999986 1630.01-87.11599999999999 1516.568-146.65999999999997 1375.451-114.38900000000001 1253.644-74.67100000000005 1134.1390000000001-35.702999999999975 1016.509 28.591999999999985 949.3340000000001 134.83499999999998 885.512 235.774 922.185 364.96299999999997 901.323 482.55 879.51 605.497 785.928 722.399 823.987 841.3240000000001 862.545 961.808 978.467 1049.459 1096.941 1093.81 1206.472 1134.813 1323.522 1082.469 1440 1071.931" fill="#113255"></path>
    </g>
    <defs>
        <mask id="SvgjsMask1016">
            <rect width="1440" height="560" fill="#ffffff"></rect>
        </mask>
    </defs>
</svg>