<svg xmlns="http://www.w3.org/2000/svg" version="1.1" xmlns:xlink="http://www.w3.org/1999/xlink" xmlns:svgjs="http://svgjs.dev/svgjs" width="1440" height="560" preserveAspectRatio="none" viewBox="0 0 1440 560">
    <g mask="url(&quot;#SvgjsMask1176&quot;)" fill="none">
        <rect width="1440" height="560" x="0" y="0" fill="rgba(23, 31, 45, 1)"></rect>
        <path d="M0,431.858C82.166,425.676,159.883,401.025,231.209,359.769C305.268,316.931,377.76,266.452,417.211,190.534C457.664,112.687,474.488,19.802,451.929,-64.978C430.316,-146.203,349.249,-191.585,297.842,-258.082C242.509,-329.658,219.955,-431.962,138.228,-470.763C53.829,-510.833,-46.233,-489.032,-136.301,-464.2C-227.485,-439.06,-325.039,-406.052,-378.786,-328.22C-431.173,-252.358,-409.483,-151.744,-415.595,-59.754C-421.198,24.584,-441.247,108.959,-413.128,188.669C-383.566,272.471,-331.285,351.25,-254.705,396.329C-179.303,440.715,-87.249,438.423,0,431.858" fill="#0f141d"></path>
        <path d="M1440 984.22C1531.975 993.423 1625.42 1015.9580000000001 1711.68 982.7429999999999 1807.484 945.8530000000001 1915.1970000000001 888.703 1943.978 790.159 1972.934 691.015 1870.529 602.391 1852.469 500.696 1835.296 403.994 1894.505 294.817 1841.344 212.233 1787.534 128.64100000000002 1677.99 101.77300000000002 1581.165 79.23500000000001 1488.281 57.613999999999976 1386.3029999999999 43.902000000000044 1300.952 86.44600000000003 1219.532 127.02999999999997 1191.511 224.94799999999998 1139.333 299.471 1093.268 365.26300000000003 1025.952 419.35699999999997 1012.429 498.525 998.769 578.495 1033.221 656.595 1065.627 730.97 1098.537 806.501 1132.908 885.495 1201.15 931.658 1270.069 978.279 1357.206 975.935 1440 984.22" fill="#1f2a3d"></path>
    </g>
    <defs>
        <mask id="SvgjsMask1176">
            <rect width="1440" height="560" fill="#ffffff"></rect>
        </mask>
    </defs>
</svg>