<svg xmlns="http://www.w3.org/2000/svg" version="1.1" xmlns:xlink="http://www.w3.org/1999/xlink" xmlns:svgjs="http://svgjs.dev/svgjs" width="1080" height="560" preserveAspectRatio="none" viewBox="0 0 1080 560"><g mask="url(&quot;#SvgjsMask1001&quot;)" fill="none"><rect width="1080" height="560" x="0" y="0" fill="rgba(0, 73, 155, 1)"></rect><path d="M0,518.658C94.406,532.466,161.519,426.067,233.769,363.752C296.527,309.624,363.828,257.063,393.166,179.553C421.593,104.449,415.055,20.687,392.829,-56.48C372.457,-127.21,316.751,-177.398,273.252,-236.774C225.279,-302.257,200.355,-394.907,124.237,-423.111C47.783,-451.439,-33.349,-402.965,-111.368,-379.286C-188.648,-355.831,-264.722,-333.79,-329.402,-285.428C-406.636,-227.68,-502.024,-169.556,-518.861,-74.601C-535.715,20.447,-476.666,115.846,-413.497,188.838C-358.513,252.372,-259.284,248.849,-193.597,301.243C-116.167,363.004,-98.002,504.324,0,518.658" fill="#002f65"></path><path d="M1080 1079.7730000000001C1174.682 1064.117 1230.893 970.394 1303.1680000000001 907.2570000000001 1364.114 854.017 1438.416 812.634 1470.733 738.442 1502.8029999999999 664.819 1482.992 582.795 1479.4470000000001 502.568 1475.484 412.88 1511.3980000000001 304.777 1448.732 240.49200000000002 1385.5 175.62599999999998 1271.554 229.022 1185.427 200.949 1095.215 171.54500000000002 1029.196 50.42500000000001 937.23 73.77100000000002 846.1949999999999 96.88099999999997 832.189 222.74200000000002 783.4100000000001 303.004 743.524 368.63300000000004 701.2139999999999 429.18600000000004 676.947 502.05 648.1279999999999 588.581 606.312 677.576 629.26 765.846 653.567 859.341 724.49 934.626 803.761 989.836 884.867 1046.324 982.485 1095.897 1080 1079.7730000000001" fill="#0063d1"></path></g><defs><mask id="SvgjsMask1001"><rect width="1080" height="560" fill="#ffffff"></rect></mask></defs></svg>