<svg xmlns="http://www.w3.org/2000/svg" version="1.1" xmlns:xlink="http://www.w3.org/1999/xlink" xmlns:svgjs="http://svgjs.dev/svgjs" width="1440" height="560" preserveAspectRatio="none" viewBox="0 0 1440 560">
    <g mask="url(&quot;#SvgjsMask1098&quot;)" fill="none">
        <rect width="1440" height="560" x="0" y="0" fill="rgba(33, 43, 63, 1)"></rect>
        <path d="M0,575.63C112.017,585.918,225.456,558.752,322.167,501.302C420.923,442.638,494.497,351.919,547.844,250.192C603.397,144.259,652.2,27.049,632.768,-90.978C613.475,-208.159,534.647,-308.198,443.395,-384.204C360.238,-453.467,244.749,-452.723,145.809,-496.579C26.914,-549.28,-69.17,-696.248,-196.036,-667.636C-321.133,-639.423,-354.459,-475.279,-424.617,-367.933C-484.836,-275.795,-545.346,-188.209,-578.063,-83.113C-615.841,38.24,-689.943,175.767,-628.513,287.032C-566.497,399.358,-402.859,391.879,-286.255,445.421C-189.022,490.068,-106.545,565.844,0,575.63" fill="#161c29"></path>
        <path d="M1440 915.191C1506.086 913.957 1556.008 860.463 1617.473 836.153 1697.91 804.34 1817.193 827.246 1856.799 750.346 1895.809 674.601 1815.562 589.989 1785.2649999999999 510.358 1761.684 448.379 1730.413 393.978 1698.9940000000001 335.581 1657.594 258.632 1650.648 149.38799999999998 1571.331 112.72800000000001 1493.18 76.606 1399.44 122.05099999999999 1323.089 161.837 1255.299 197.16199999999998 1214.8890000000001 263.861 1166.9850000000001 323.43100000000004 1120.963 380.66200000000003 1065.651 432.33 1048.205 503.668 1029.838 578.772 1026.833 664.363 1067.534 730.1 1107.21 794.181 1190.721 809.321 1258.216 842.861 1317.825 872.483 1373.449 916.434 1440 915.191" fill="#2d3a55"></path>
    </g>
    <defs>
        <mask id="SvgjsMask1098">
            <rect width="1440" height="560" fill="#ffffff"></rect>
        </mask>
    </defs>
</svg>