<svg xmlns="http://www.w3.org/2000/svg" version="1.1" xmlns:xlink="http://www.w3.org/1999/xlink" xmlns:svgjs="http://svgjs.dev/svgjs" width="560" height="1440" preserveAspectRatio="none" viewBox="0 0 560 1440"><g mask="url(&quot;#SvgjsMask1060&quot;)" fill="none"><rect width="560" height="1440" x="0" y="0" fill="rgba(93, 181, 135, 1)"></rect><path d="M0,641.13C118.717,639.724,165.908,477.284,269.785,419.793C385.091,355.977,563.672,400.867,634.699,289.857C703.905,181.693,625.655,38.918,592.925,-85.25C563.597,-196.512,542.176,-319.317,454.485,-393.814C370.099,-465.504,241.254,-430.349,138.41,-471.38C19.698,-518.742,-63.916,-662.09,-191.284,-651.455C-317.935,-640.88,-410.436,-523.03,-484.023,-419.409C-553.271,-321.898,-579.551,-204.11,-593.338,-85.309C-606.814,30.808,-624.422,157.735,-562.509,256.889C-502.214,353.45,-367.925,362.021,-273.923,426.232C-176.112,493.045,-118.444,642.533,0,641.13" fill="#387a58"></path><path d="M560 1901.349C647.019 1901.642 721 1849.65 800.442 1814.135 895.0640000000001 1771.834 1017.804 1762.391 1070.49 1673.133 1123.354 1583.574 1096.63 1466.292 1064.06 1367.527 1034.663 1278.383 968.797 1208.531 897.245 1147.776 833.731 1093.846 754.107 1072.467 677.626 1039.404 589.068 1001.12 505.794 913.017 412.687 938.3 319.797 963.524 306.027 1093.202 236.06400000000002 1159.308 154.594 1236.288 14.923000000000002 1252.109-28.698999999999955 1355.358-73.38400000000001 1461.124-58.02999999999997 1599.175 11.678999999999974 1690.41 80.29199999999997 1780.212 215.118 1771.943 320.596 1812.52 401.68 1843.713 473.123 1901.057 560 1901.349" fill="#9fd3b8"></path></g><defs><mask id="SvgjsMask1060"><rect width="560" height="1440" fill="#ffffff"></rect></mask></defs></svg>