<svg xmlns="http://www.w3.org/2000/svg" version="1.1" xmlns:xlink="http://www.w3.org/1999/xlink" xmlns:svgjs="http://svgjs.com/svgjs" width="1440" height="560" preserveAspectRatio="none" viewBox="0 0 1440 560"><g mask="url(&quot;#SvgjsMask1110&quot;)" fill="none"><rect width="1440" height="560" x="0" y="0" fill="rgba(32, 72, 114, 1)"></rect><path d="M0,402.016C76.48,401.744,88.752,279.5,151.819,236.236C211.801,195.088,308.701,219.253,351.817,160.67C394.853,102.196,374.604,19.491,364.23,-52.368C353.861,-124.191,350.526,-210.073,292.082,-253.09C233.181,-296.443,149.634,-252.238,77.372,-263.505C18.092,-272.748,-32.15,-318.464,-91.893,-312.959C-157.422,-306.921,-230.498,-286.198,-267.436,-231.735C-304.128,-177.635,-265.933,-104.248,-277.124,-39.844C-288.818,27.455,-362.235,90.336,-334.226,152.636C-306.258,214.844,-207.182,196.53,-152.516,237.319C-91.307,282.99,-76.37,402.288,0,402.016" fill="#1a3a5b"></path><path d="M1440 1138.8220000000001C1554.012 1168.278 1683.886 1157.301 1783.203 1094.0349999999999 1882.635 1030.696 1940.8600000000001 916.121 1969.238 801.6949999999999 1995.009 697.782 1966.729 590.77 1933.233 489.084 1904.182 400.894 1857.132 320.829 1789.781 256.913 1726.81 197.154 1639.408 181.08100000000002 1563.774 138.466 1460.473 80.262 1381.184-57.55200000000002 1264.024-39.317999999999984 1150.488-21.648000000000025 1123.3809999999999 133.639 1046.443 218.981 967.435 306.619 826.736 352.68899999999996 805.913 468.832 785.115 584.83 869.949 695.108 944.751 786.173 1008.322 863.566 1112.951 883.856 1194.536 941.95 1281.742 1004.046 1336.348 1112.0430000000001 1440 1138.8220000000001" fill="#265689"></path></g><defs><mask id="SvgjsMask1110"><rect width="1440" height="560" fill="#ffffff"></rect></mask></defs></svg>