<svg xmlns="http://www.w3.org/2000/svg" version="1.1" xmlns:xlink="http://www.w3.org/1999/xlink" xmlns:svgjs="http://svgjs.dev/svgjs" width="1000" height="323" viewBox="0 0 1000 323"><g transform="matrix(1,0,0,1,-0.606039280746927,-0.300968094671731)"><svg viewBox="0 0 396 128" data-background-color="#2a619b" preserveAspectRatio="xMidYMid meet" height="323" width="1000" xmlns="http://www.w3.org/2000/svg" xmlns:xlink="http://www.w3.org/1999/xlink"><g id="tight-bounds" transform="matrix(1,0,0,1,0.2399915551757772,0.11926909014854914)"><svg viewBox="0 0 395.52 127.76146181970292" height="127.76146181970292" width="395.52"><g><svg viewBox="0 0 622.2496116410266 200.99999999999997" height="127.76146181970292" width="395.52"><g><rect width="5.649197209265773" height="200.99999999999997" x="214.7884743698057" y="0" fill="#ffffff" opacity="1" stroke-width="0" stroke="transparent" fill-opacity="1" class="rect-o-0" data-fill-palette-color="primary" rx="1%" id="o-0" data-palette-color="#ffffff"></rect></g><g transform="matrix(1,0,0,1,235.22614594887716,0.4999999999999858)"><svg viewBox="0 0 387.0234656921495 200" height="200" width="387.0234656921495"><g id="textblocktransform"><svg viewBox="0 0 387.0234656921495 200" height="200" width="387.0234656921495" id="textblock"><g><svg viewBox="0 0 387.0234656921495 200" height="200" width="387.0234656921495"><g transform="matrix(1,0,0,1,0,0)"><svg width="387.0234656921495" viewBox="1.9499995708465576 -37.500003814697266 290.72998046875 147.57998657226562" height="200" data-palette-color="#ffffff"><svg></svg><svg></svg><svg></svg><g class="undefined-text-0" data-fill-palette-color="primary" id="text-0"><path xmlns="http://www.w3.org/2000/svg" d="M14.6-15.84v0c-4.02-1.16-6.947-2.58-8.78-4.26-1.827-1.687-2.74-3.767-2.74-6.24v0c0-2.8 1.117-5.117 3.35-6.95 2.24-1.833 5.15-2.75 8.73-2.75v0c2.44 0 4.617 0.473 6.53 1.42 1.913 0.947 3.397 2.25 4.45 3.91 1.047 1.66 1.57 3.473 1.57 5.44v0h-4.71c0-2.147-0.683-3.833-2.05-5.06-1.367-1.233-3.297-1.85-5.79-1.85v0c-2.313 0-4.117 0.51-5.41 1.53-1.293 1.013-1.94 2.423-1.94 4.23v0c0 1.453 0.617 2.68 1.85 3.68 1.227 1 3.317 1.913 6.27 2.74 2.953 0.833 5.263 1.75 6.93 2.75 1.673 1 2.91 2.167 3.71 3.5 0.807 1.34 1.21 2.913 1.21 4.72v0c0 2.88-1.123 5.187-3.37 6.92-2.247 1.733-5.247 2.6-9 2.6v0c-2.447 0-4.727-0.47-6.84-1.41-2.113-0.933-3.747-2.213-4.9-3.84-1.147-1.627-1.72-3.473-1.72-5.54v0h4.72c0 2.147 0.793 3.843 2.38 5.09 1.587 1.247 3.707 1.87 6.36 1.87v0c2.473 0 4.367-0.507 5.68-1.52 1.32-1.007 1.98-2.38 1.98-4.12 0-1.747-0.61-3.093-1.83-4.04-1.22-0.953-3.433-1.893-6.64-2.82zM43.68-3.2v0c1.607 0 3.013-0.487 4.22-1.46 1.207-0.98 1.873-2.203 2-3.67v0h4.27c-0.08 1.52-0.6 2.963-1.56 4.33-0.96 1.367-2.24 2.457-3.84 3.27-1.607 0.813-3.303 1.22-5.09 1.22v0c-3.6 0-6.46-1.2-8.58-3.6-2.127-2.4-3.19-5.683-3.19-9.85v0-0.76c0-2.573 0.473-4.86 1.42-6.86 0.94-2 2.293-3.553 4.06-4.66 1.767-1.107 3.853-1.66 6.26-1.66v0c2.967 0 5.43 0.887 7.39 2.66 1.96 1.773 3.003 4.077 3.13 6.91v0h-4.27c-0.127-1.713-0.773-3.12-1.94-4.22-1.16-1.093-2.597-1.64-4.31-1.64v0c-2.293 0-4.07 0.823-5.33 2.47-1.26 1.653-1.89 4.043-1.89 7.17v0 0.85c0 3.047 0.627 5.393 1.88 7.04 1.253 1.64 3.043 2.46 5.37 2.46zM63.77-37.5v14.28c2-2.453 4.603-3.68 7.81-3.68v0c5.587 0 8.403 3.147 8.45 9.44v0 17.46h-4.52v-17.48c-0.013-1.907-0.447-3.313-1.3-4.22-0.86-0.913-2.193-1.37-4-1.37v0c-1.46 0-2.743 0.39-3.85 1.17-1.107 0.78-1.97 1.807-2.59 3.08v0 18.82h-4.52v-37.5zM85.6-13.13v-0.32c0-2.587 0.507-4.913 1.52-6.98 1.02-2.073 2.437-3.67 4.25-4.79 1.813-1.12 3.883-1.68 6.21-1.68v0c3.6 0 6.51 1.243 8.73 3.73 2.22 2.493 3.33 5.807 3.33 9.94v0 0.31c0 2.573-0.49 4.883-1.47 6.93-0.987 2.04-2.397 3.63-4.23 4.77-1.827 1.14-3.93 1.71-6.31 1.71v0c-3.58 0-6.48-1.247-8.7-3.74-2.22-2.487-3.33-5.78-3.33-9.88zM90.14-12.92v0c0 2.933 0.68 5.287 2.04 7.06 1.353 1.773 3.17 2.66 5.45 2.66v0c2.293 0 4.117-0.9 5.47-2.7 1.353-1.793 2.03-4.31 2.03-7.55v0c0-2.9-0.69-5.25-2.07-7.05-1.373-1.793-3.2-2.69-5.48-2.69v0c-2.227 0-4.023 0.887-5.39 2.66-1.367 1.773-2.05 4.31-2.05 7.61zM114.11-13.13v-0.32c0-2.587 0.51-4.913 1.53-6.98 1.013-2.073 2.43-3.67 4.25-4.79 1.813-1.12 3.883-1.68 6.21-1.68v0c3.593 0 6.503 1.243 8.73 3.73 2.22 2.493 3.33 5.807 3.33 9.94v0 0.31c0 2.573-0.493 4.883-1.48 6.93-0.98 2.04-2.387 3.63-4.22 4.77-1.833 1.14-3.937 1.71-6.31 1.71v0c-3.58 0-6.483-1.247-8.71-3.74-2.22-2.487-3.33-5.78-3.33-9.88zM118.65-12.92v0c0 2.933 0.68 5.287 2.04 7.06 1.36 1.773 3.18 2.66 5.46 2.66v0c2.293 0 4.117-0.9 5.47-2.7 1.347-1.793 2.02-4.31 2.02-7.55v0c0-2.9-0.687-5.25-2.06-7.05-1.373-1.793-3.2-2.69-5.48-2.69v0c-2.233 0-4.033 0.887-5.4 2.66-1.367 1.773-2.05 4.31-2.05 7.61zM148.73-37.5v37.5h-4.52v-37.5z" fill="#ffffff" fill-rule="nonzero" stroke="none" stroke-width="1" stroke-linecap="butt" stroke-linejoin="miter" stroke-miterlimit="10" stroke-dasharray="" stroke-dashoffset="0" font-family="none" font-weight="none" font-size="none" text-anchor="none" style="mix-blend-mode: normal" data-fill-palette-color="primary" opacity="1"></path><path xmlns="http://www.w3.org/2000/svg" d="M4.13 14.15h6.05l11.62 29.01 11.62-29.01h6.08v35.55h-4.69v-13.84l0.44-14.94-11.67 28.78h-3.58l-11.65-28.71 0.46 14.87v13.84h-4.68zM68.12 49.7h-4.74c-0.26-0.52-0.473-1.447-0.64-2.78v0c-2.1 2.18-4.607 3.27-7.52 3.27v0c-2.6 0-4.733-0.737-6.4-2.21-1.673-1.473-2.51-3.34-2.51-5.6v0c0-2.753 1.047-4.89 3.14-6.41 2.093-1.527 5.037-2.29 8.83-2.29v0h4.39v-2.07c0-1.58-0.473-2.837-1.42-3.77-0.94-0.94-2.33-1.41-4.17-1.41v0c-1.613 0-2.963 0.407-4.05 1.22-1.093 0.813-1.64 1.8-1.64 2.96v0h-4.54c0-1.32 0.467-2.593 1.4-3.82 0.94-1.233 2.21-2.207 3.81-2.92 1.607-0.713 3.37-1.07 5.29-1.07v0c3.04 0 5.423 0.76 7.15 2.28 1.727 1.52 2.623 3.617 2.69 6.29v0 12.15c0 2.427 0.31 4.357 0.93 5.79v0zM55.88 46.26v0c1.42 0 2.763-0.367 4.03-1.1 1.273-0.733 2.193-1.687 2.76-2.86v0-5.42h-3.54c-5.533 0-8.3 1.62-8.3 4.86v0c0 1.42 0.473 2.527 1.42 3.32 0.94 0.8 2.15 1.2 3.63 1.2zM74.27 23.28h4.27l0.15 3.32c2.013-2.533 4.65-3.8 7.91-3.8v0c5.58 0 8.393 3.147 8.44 9.44v0 17.46h-4.51v-17.48c-0.02-1.907-0.457-3.313-1.31-4.22-0.853-0.913-2.183-1.37-3.99-1.37v0c-1.467 0-2.753 0.39-3.86 1.17-1.107 0.78-1.97 1.807-2.59 3.08v0 18.82h-4.51zM122.9 49.7h-4.74c-0.26-0.52-0.47-1.447-0.63-2.78v0c-2.1 2.18-4.607 3.27-7.52 3.27v0c-2.607 0-4.743-0.737-6.41-2.21-1.667-1.473-2.5-3.34-2.5-5.6v0c0-2.753 1.047-4.89 3.14-6.41 2.087-1.527 5.027-2.29 8.82-2.29v0h4.4v-2.07c0-1.58-0.473-2.837-1.42-3.77-0.947-0.94-2.337-1.41-4.17-1.41v0c-1.613 0-2.967 0.407-4.06 1.22-1.087 0.813-1.63 1.8-1.63 2.96v0h-4.54c0-1.32 0.467-2.593 1.4-3.82 0.933-1.233 2.203-2.207 3.81-2.92 1.6-0.713 3.36-1.07 5.28-1.07v0c3.047 0 5.433 0.76 7.16 2.28 1.727 1.52 2.62 3.617 2.68 6.29v0 12.15c0 2.427 0.31 4.357 0.93 5.79v0zM110.67 46.26v0c1.413 0 2.757-0.367 4.03-1.1 1.267-0.733 2.187-1.687 2.76-2.86v0-5.42h-3.54c-5.533 0-8.3 1.62-8.3 4.86v0c0 1.42 0.47 2.527 1.41 3.32 0.947 0.8 2.16 1.2 3.64 1.2zM127.98 36.27v0c0-4.113 0.95-7.387 2.85-9.82 1.907-2.433 4.43-3.65 7.57-3.65v0c3.227 0 5.743 1.137 7.55 3.41v0l0.22-2.93h4.12v25.79c0 3.413-1.013 6.107-3.04 8.08-2.027 1.967-4.747 2.95-8.16 2.95v0c-1.907 0-3.77-0.407-5.59-1.22-1.827-0.813-3.22-1.93-4.18-3.35v0l2.35-2.7c1.933 2.387 4.3 3.58 7.1 3.58v0c2.2 0 3.913-0.617 5.14-1.85 1.227-1.24 1.84-2.983 1.84-5.23v0-2.27c-1.807 2.087-4.273 3.13-7.4 3.13v0c-3.087 0-5.587-1.247-7.5-3.74-1.913-2.487-2.87-5.88-2.87-10.18zM132.52 36.78v0c0 2.98 0.61 5.32 1.83 7.02 1.22 1.707 2.93 2.56 5.13 2.56v0c2.847 0 4.937-1.297 6.27-3.89v0-12.06c-1.38-2.52-3.453-3.78-6.22-3.78v0c-2.2 0-3.917 0.853-5.15 2.56-1.24 1.713-1.86 4.243-1.86 7.59zM168.07 50.19v0c-3.58 0-6.493-1.177-8.74-3.53-2.247-2.353-3.37-5.5-3.37-9.44v0-0.83c0-2.62 0.5-4.957 1.5-7.01 1-2.06 2.4-3.673 4.2-4.84 1.8-1.16 3.747-1.74 5.84-1.74v0c3.44 0 6.11 1.13 8.01 3.39 1.907 2.26 2.86 5.5 2.86 9.72v0 1.88h-17.9c0.067 2.6 0.83 4.703 2.29 6.31 1.453 1.6 3.303 2.4 5.55 2.4v0c1.593 0 2.943-0.323 4.05-0.97 1.107-0.653 2.077-1.517 2.91-2.59v0l2.76 2.15c-2.213 3.4-5.533 5.1-9.96 5.1zM167.5 26.51v0c-1.82 0-3.347 0.663-4.58 1.99-1.24 1.327-2.007 3.183-2.3 5.57v0h13.23v-0.34c-0.127-2.293-0.743-4.07-1.85-5.33-1.107-1.26-2.607-1.89-4.5-1.89zM183.57 23.28h4.27l0.12 2.93c1.94-2.273 4.553-3.41 7.84-3.41v0c3.693 0 6.207 1.413 7.54 4.24v0c0.88-1.267 2.023-2.29 3.43-3.07 1.413-0.78 3.08-1.17 5-1.17v0c5.793 0 8.74 3.067 8.84 9.2v0 17.7h-4.52v-17.43c0-1.887-0.433-3.3-1.3-4.24-0.86-0.933-2.307-1.4-4.34-1.4v0c-1.68 0-3.073 0.5-4.18 1.5-1.107 1-1.747 2.347-1.92 4.04v0 17.53h-4.55v-17.31c0-3.84-1.877-5.76-5.63-5.76v0c-2.967 0-4.993 1.26-6.08 3.78v0 19.29h-4.52zM238.38 50.19v0c-3.58 0-6.493-1.177-8.74-3.53-2.247-2.353-3.37-5.5-3.37-9.44v0-0.83c0-2.62 0.5-4.957 1.5-7.01 1-2.06 2.4-3.673 4.2-4.84 1.8-1.16 3.75-1.74 5.85-1.74v0c3.433 0 6.103 1.13 8.01 3.39 1.9 2.26 2.85 5.5 2.85 9.72v0 1.88h-17.89c0.06 2.6 0.82 4.703 2.28 6.31 1.453 1.6 3.303 2.4 5.55 2.4v0c1.6 0 2.953-0.323 4.06-0.97 1.107-0.653 2.073-1.517 2.9-2.59v0l2.76 2.15c-2.213 3.4-5.533 5.1-9.96 5.1zM237.82 26.51v0c-1.827 0-3.357 0.663-4.59 1.99-1.24 1.327-2.007 3.183-2.3 5.57v0h13.24v-0.34c-0.133-2.293-0.753-4.07-1.86-5.33-1.107-1.26-2.603-1.89-4.49-1.89zM253.91 23.28h4.27l0.15 3.32c2.013-2.533 4.65-3.8 7.91-3.8v0c5.58 0 8.393 3.147 8.44 9.44v0 17.46h-4.51v-17.48c-0.02-1.907-0.457-3.313-1.31-4.22-0.853-0.913-2.183-1.37-3.99-1.37v0c-1.467 0-2.753 0.39-3.86 1.17-1.107 0.78-1.97 1.807-2.59 3.08v0 18.82h-4.51zM283.11 16.89h4.51v6.39h4.93v3.5h-4.93v16.38c0 1.053 0.22 1.847 0.66 2.38 0.44 0.527 1.19 0.79 2.25 0.79v0c0.52 0 1.237-0.097 2.15-0.29v0 3.66c-1.193 0.327-2.35 0.49-3.47 0.49v0c-2.02 0-3.543-0.61-4.57-1.83-1.02-1.22-1.53-2.953-1.53-5.2v0-16.38h-4.81v-3.5h4.81z" fill="#ffffff" fill-rule="nonzero" stroke="none" stroke-width="1" stroke-linecap="butt" stroke-linejoin="miter" stroke-miterlimit="10" stroke-dasharray="" stroke-dashoffset="0" font-family="none" font-weight="none" font-size="none" text-anchor="none" style="mix-blend-mode: normal" data-fill-palette-color="primary" opacity="1"></path><path xmlns="http://www.w3.org/2000/svg" d="M14.6 83.57v0c-4.02-1.16-6.947-2.58-8.78-4.26-1.827-1.687-2.74-3.767-2.74-6.24v0c0-2.8 1.117-5.117 3.35-6.95 2.24-1.833 5.15-2.75 8.73-2.75v0c2.44 0 4.617 0.473 6.53 1.42 1.913 0.947 3.397 2.25 4.45 3.91 1.047 1.66 1.57 3.473 1.57 5.44v0h-4.71c0-2.147-0.683-3.833-2.05-5.06-1.367-1.233-3.297-1.85-5.79-1.85v0c-2.313 0-4.117 0.51-5.41 1.53-1.293 1.013-1.94 2.423-1.94 4.23v0c0 1.453 0.617 2.68 1.85 3.68 1.227 1 3.317 1.913 6.27 2.74 2.953 0.833 5.263 1.75 6.93 2.75 1.673 1 2.91 2.167 3.71 3.5 0.807 1.34 1.21 2.913 1.21 4.72v0c0 2.88-1.123 5.187-3.37 6.92-2.247 1.733-5.247 2.6-9 2.6v0c-2.447 0-4.727-0.47-6.84-1.41-2.113-0.933-3.747-2.213-4.9-3.84-1.147-1.627-1.72-3.473-1.72-5.54v0h4.72c0 2.147 0.793 3.843 2.38 5.09 1.587 1.247 3.707 1.87 6.36 1.87v0c2.473 0 4.367-0.507 5.68-1.52 1.32-1.007 1.98-2.38 1.98-4.12 0-1.747-0.61-3.093-1.83-4.04-1.22-0.953-3.433-1.893-6.64-2.82zM35.13 72.99l6.59 19.8 6.16-19.8h4.83l-10.62 30.5c-1.647 4.393-4.26 6.59-7.84 6.59v0l-0.85-0.07-1.69-0.32v-3.66l1.22 0.09c1.533 0 2.727-0.307 3.58-0.92 0.853-0.62 1.557-1.753 2.11-3.4v0l1-2.68-9.42-26.13zM72.12 92.4v0c0-1.22-0.46-2.167-1.38-2.84-0.92-0.673-2.523-1.257-4.81-1.75-2.287-0.487-4.1-1.07-5.44-1.75-1.347-0.687-2.34-1.503-2.98-2.45-0.647-0.94-0.97-2.063-0.97-3.37v0c0-2.16 0.917-3.99 2.75-5.49 1.833-1.493 4.173-2.24 7.02-2.24v0c2.993 0 5.423 0.773 7.29 2.32 1.86 1.54 2.79 3.517 2.79 5.93v0h-4.54c0-1.24-0.523-2.307-1.57-3.2-1.053-0.893-2.377-1.34-3.97-1.34v0c-1.647 0-2.933 0.357-3.86 1.07-0.927 0.72-1.39 1.657-1.39 2.81v0c0 1.087 0.43 1.907 1.29 2.46 0.867 0.553 2.427 1.083 4.68 1.59 2.253 0.507 4.08 1.11 5.48 1.81 1.4 0.7 2.437 1.54 3.11 2.52 0.68 0.987 1.02 2.19 1.02 3.61v0c0 2.36-0.947 4.25-2.84 5.67-1.887 1.427-4.333 2.14-7.34 2.14v0c-2.12 0-3.993-0.373-5.62-1.12-1.627-0.753-2.9-1.8-3.82-3.14-0.92-1.347-1.38-2.8-1.38-4.36v0h4.52c0.08 1.513 0.687 2.713 1.82 3.6 1.127 0.887 2.62 1.33 4.48 1.33v0c1.707 0 3.077-0.347 4.11-1.04 1.033-0.687 1.55-1.61 1.55-2.77zM84.13 66.6h4.52v6.39h4.93v3.5h-4.93v16.38c0 1.053 0.22 1.847 0.66 2.38 0.44 0.527 1.187 0.79 2.24 0.79v0c0.52 0 1.237-0.097 2.15-0.29v0 3.66c-1.187 0.327-2.343 0.49-3.47 0.49v0c-2.013 0-3.533-0.61-4.56-1.83-1.027-1.22-1.54-2.953-1.54-5.2v0-16.38h-4.81v-3.5h4.81zM109.81 99.9v0c-3.58 0-6.493-1.177-8.74-3.53-2.24-2.353-3.36-5.5-3.36-9.44v0-0.83c0-2.62 0.5-4.957 1.5-7.01 1-2.06 2.4-3.673 4.2-4.84 1.793-1.16 3.74-1.74 5.84-1.74v0c3.433 0 6.103 1.13 8.01 3.39 1.907 2.26 2.86 5.5 2.86 9.72v0 1.88h-17.9c0.067 2.6 0.827 4.703 2.28 6.31 1.46 1.6 3.313 2.4 5.56 2.4v0c1.593 0 2.943-0.323 4.05-0.97 1.107-0.653 2.077-1.517 2.91-2.59v0l2.76 2.15c-2.213 3.4-5.537 5.1-9.97 5.1zM109.25 76.22v0c-1.82 0-3.35 0.663-4.59 1.99-1.233 1.327-1.997 3.183-2.29 5.57v0h13.23v-0.34c-0.127-2.293-0.743-4.07-1.85-5.33-1.113-1.26-2.613-1.89-4.5-1.89zM125.32 72.99h4.27l0.12 2.93c1.94-2.273 4.553-3.41 7.84-3.41v0c3.693 0 6.207 1.413 7.54 4.24v0c0.88-1.267 2.023-2.29 3.43-3.07 1.407-0.78 3.073-1.17 5-1.17v0c5.793 0 8.737 3.067 8.83 9.2v0 17.7h-4.51v-17.43c0-1.887-0.433-3.3-1.3-4.24-0.86-0.933-2.307-1.4-4.34-1.4v0c-1.68 0-3.073 0.5-4.18 1.5-1.107 1-1.75 2.347-1.93 4.04v0 17.53h-4.54v-17.31c0-3.84-1.88-5.76-5.64-5.76v0c-2.96 0-4.987 1.26-6.08 3.78v0 19.29h-4.51z" fill="#ffffff" fill-rule="nonzero" stroke="none" stroke-width="1" stroke-linecap="butt" stroke-linejoin="miter" stroke-miterlimit="10" stroke-dasharray="" stroke-dashoffset="0" font-family="none" font-weight="none" font-size="none" text-anchor="none" style="mix-blend-mode: normal" data-fill-palette-color="primary" opacity="1"></path></g></svg></g></svg></g></svg></g></svg></g><g transform="matrix(1,0,0,1,0,0.4999999999999858)"><svg viewBox="0 0 200 200" height="200" width="200"><g><svg xmlns="http://www.w3.org/2000/svg" xmlns:xlink="http://www.w3.org/1999/xlink" version="1.1" x="0" y="0" viewBox="0 0 100 100" enable-background="new 0 0 100 100" xml:space="preserve" height="200" width="200" class="icon-icon-0" data-fill-palette-color="accent" id="icon-0"><polygon points="95.84,33.255 50,10.469 4.16,33.255 0,24.883 49.935,0.059 49.955,0 50,0.026 50.045,0 50.065,0.059 100,24.883 " fill="#ffffff" data-fill-palette-color="accent"></polygon><path d="M50.43 45.228c-3.001-2.865-20.215-12.826-43.763-2.683 0 0.163 0 2.969 0 7.266V98.21H42.35c1.218 1.041 4.128 1.79 7.533 1.79 3.418 0 6.321-0.749 7.552-1.79h35.898V49.811c0-4.297 0-7.103 0-7.266C70.749 32.598 52.708 43.125 50.43 45.228zM47.227 94.739c0-1.907-16.745-13.06-36.094-0.892V46.66c3.828-2.207 8.984-3.548 14.674-3.548 11.836 0 21.419 3.88 21.419 11.094V94.739zM89.134 93.848c-19.336-12.168-36.08-1.016-36.08 0.892V54.206c0-7.214 9.59-11.094 21.412-11.094 5.69 0 10.847 1.341 14.668 3.548V93.848z" fill="#ffffff" data-fill-palette-color="accent"></path></svg></g></svg></g></svg></g><defs></defs></svg><rect width="395.52" height="127.76146181970292" fill="none" stroke="none" visibility="hidden"></rect></g></svg></g></svg>