<svg xmlns="http://www.w3.org/2000/svg" version="1.1" xmlns:xlink="http://www.w3.org/1999/xlink" xmlns:svgjs="http://svgjs.dev/svgjs" width="1000" height="1000" viewBox="0 0 1000 1000"><rect width="1000" height="1000" fill="#00617e"></rect><g transform="matrix(0.7,0,0,0.7,150,281.25)"><svg viewBox="0 0 512 320" data-background-color="#00617e" preserveAspectRatio="xMidYMid meet" height="625" width="1000" xmlns="http://www.w3.org/2000/svg" xmlns:xlink="http://www.w3.org/1999/xlink"><g id="tight-bounds" transform="matrix(1,0,0,1,0,0)"><svg viewBox="0 0 512 320" height="320" width="512"><g><svg></svg></g><g><svg viewBox="0 0 512 320" height="320" width="512"><g><path xmlns="http://www.w3.org/2000/svg" d="M96 160c0-88.366 71.634-160 160-160 88.366 0 160 71.634 160 160 0 88.366-71.634 160-160 160-88.366 0-160-71.634-160-160z" fill="#ffffff" fill-rule="nonzero" stroke="none" stroke-width="1" stroke-linecap="butt" stroke-linejoin="miter" stroke-miterlimit="10" stroke-dasharray="" stroke-dashoffset="0" font-family="none" font-weight="none" font-size="none" text-anchor="none" style="mix-blend-mode: normal" data-fill-palette-color="tertiary"></path></g><g transform="matrix(1,0,0,1,76.80000000000001,20)"><svg viewBox="0 0 358.4 280" height="280" width="358.4"><g><svg viewBox="0 0 358.4 280" height="280" width="358.4"><g><svg viewBox="0 0 358.4 280" height="280" width="358.4"><g id="textblocktransform"><svg viewBox="0 0 358.4 280" height="280" width="358.4" id="textblock"><g><svg viewBox="0 0 358.4 280" height="280" width="358.4"><g transform="matrix(1,0,0,1,122.04388703027531,74.00336708925556)"><svg viewBox="0 0 114.31222593944935 131.99326582148888" height="131.99326582148888" width="114.31222593944935"><g><svg xmlns="http://www.w3.org/2000/svg" xmlns:xlink="http://www.w3.org/1999/xlink" version="1.1" x="0" y="0" viewBox="9.54699993133545 3.2899999618530273 80.906005859375 93.41999816894531" enable-background="new 0 0 100 100" xml:space="preserve" height="131.99326582148888" width="114.31222593944935" class="icon-o-0" data-fill-palette-color="quaternary" id="o-0"><g fill="#00617e" data-fill-palette-color="quaternary"><path d="M31.112 39.094v21.812L49.999 71.81l18.89-10.903V39.094l-18.89-10.905L31.112 39.094zM60.925 56.308l-10.926 6.307-10.924-6.307V43.692l10.924-6.308 10.926 6.308V56.308z" fill="#00617e" data-fill-palette-color="quaternary"></path><path d="M49.999 3.29L9.547 26.646v46.709L49.999 96.71l40.454-23.355V26.646L49.999 3.29zM82.19 68.584L49.999 87.169 17.811 68.584v-37.17l32.188-18.585L82.19 31.414V68.584z" fill="#00617e" data-fill-palette-color="quaternary"></path><path d="M20.368 32.89v34.218l29.631 17.108 29.634-17.108V32.89L49.999 15.782 20.368 32.89zM71.446 62.383l-21.447 12.38-21.444-12.38V37.618l21.444-12.382 21.447 12.382V62.383z" fill="#00617e" data-fill-palette-color="quaternary"></path></g></svg></g></svg></g><path d="M61.471 182.156V182.156C61.835 183.343 62.016 184.567 62.014 185.829V185.829L62.028 186.232 59.721 186.136 59.717 185.763C59.681 184.593 59.526 183.563 59.253 182.671V182.671C58.985 181.8 58.615 181.096 58.143 180.558 57.663 180.023 57.199 179.825 56.75 179.963V179.963C56.462 180.051 56.249 180.266 56.112 180.609 55.975 180.952 55.897 181.368 55.879 181.858 55.867 182.345 55.866 182.881 55.877 183.465 55.892 184.039 55.884 184.625 55.854 185.221 55.819 185.825 55.742 186.384 55.62 186.898 55.501 187.419 55.271 187.886 54.928 188.299 54.59 188.703 54.143 188.991 53.586 189.161V189.161C53.224 189.272 52.85 189.321 52.465 189.307 52.077 189.287 51.672 189.184 51.248 188.998 50.818 188.815 50.411 188.551 50.026 188.207 49.64 187.856 49.269 187.375 48.913 186.766 48.549 186.152 48.241 185.435 47.991 184.618 47.742 183.807 47.594 183.049 47.547 182.345 47.499 181.64 47.503 180.876 47.559 180.053V180.053L47.591 179.691 49.984 179.782 49.961 180.174C49.888 181.847 50.001 183.173 50.301 184.151V184.151C50.582 185.07 50.948 185.772 51.398 186.257 51.854 186.741 52.313 186.911 52.776 186.77V186.77C53.031 186.691 53.232 186.534 53.379 186.298 53.527 186.062 53.627 185.779 53.679 185.447 53.73 185.109 53.757 184.731 53.76 184.312 53.766 183.899 53.762 183.468 53.748 183.017 53.733 182.56 53.725 182.104 53.725 181.649 53.731 181.192 53.767 180.745 53.831 180.308 53.903 179.875 54.011 179.475 54.156 179.108 54.295 178.75 54.512 178.43 54.808 178.149 55.103 177.868 55.468 177.66 55.904 177.527V177.527C56.976 177.198 58.036 177.449 59.083 178.279 60.136 179.107 60.932 180.4 61.471 182.156ZM66.96 195.833V195.833C67.519 197.119 67.822 198.432 67.87 199.772V199.772L67.873 200.149 65.727 200.279 65.701 199.901C65.593 198.633 65.343 197.548 64.952 196.648V196.648C64.645 195.941 64.244 195.335 63.749 194.831 63.255 194.328 62.725 193.962 62.16 193.733 61.601 193.502 61.02 193.388 60.417 193.39 59.82 193.39 59.248 193.508 58.702 193.746V193.746C58.136 193.992 57.647 194.345 57.236 194.807 56.825 195.268 56.519 195.795 56.318 196.387 56.117 196.979 56.045 197.649 56.102 198.396 56.156 199.137 56.35 199.89 56.682 200.656V200.656C57.09 201.594 57.666 202.461 58.408 203.254V203.254L58.653 203.526 57.242 204.977 56.968 204.717C55.895 203.708 55.06 202.515 54.461 201.139V201.139C53.995 200.065 53.737 199.023 53.687 198.012 53.635 196.995 53.769 196.081 54.089 195.269 54.415 194.454 54.887 193.729 55.506 193.094 56.133 192.462 56.881 191.957 57.749 191.58V191.58C58.63 191.197 59.515 190.999 60.404 190.987 61.3 190.973 62.15 191.134 62.955 191.473 63.762 191.818 64.515 192.362 65.213 193.106 65.911 193.85 66.493 194.759 66.96 195.833ZM70.01 212.695L74.648 210.021 75.824 212.062 64.307 218.701 63.131 216.66 68.133 213.777 64.582 207.617 59.58 210.501 58.403 208.46 69.92 201.82 71.097 203.861 66.459 206.535ZM82.04 219.726V219.726C82.865 220.799 83.389 221.917 83.612 223.081 83.831 224.24 83.724 225.366 83.292 226.459 82.858 227.563 82.11 228.523 81.049 229.339V229.339C79.971 230.169 78.833 230.668 77.636 230.837 76.443 231.011 75.289 230.851 74.174 230.355 73.064 229.856 72.084 229.053 71.233 227.947V227.947C70.673 227.219 70.254 226.444 69.976 225.623 69.704 224.797 69.583 223.962 69.613 223.116 69.649 222.265 69.897 221.42 70.356 220.58 70.81 219.744 71.473 218.991 72.346 218.32V218.32C73.43 217.486 74.566 216.992 75.757 216.837 76.943 216.676 78.078 216.847 79.162 217.348 80.251 217.855 81.21 218.648 82.04 219.726ZM80.94 222.125C80.768 221.718 80.543 221.333 80.265 220.972 79.991 220.616 79.682 220.306 79.336 220.041 78.992 219.766 78.611 219.546 78.192 219.382 77.764 219.216 77.324 219.121 76.872 219.097 76.424 219.079 75.95 219.152 75.448 219.317 74.941 219.485 74.449 219.754 73.971 220.121V220.121C72.826 221.002 72.181 222.06 72.034 223.296 71.883 224.537 72.215 225.687 73.032 226.749V226.749C73.37 227.188 73.769 227.557 74.23 227.858 74.691 228.158 75.197 228.379 75.748 228.521 76.301 228.653 76.9 228.638 77.546 228.477 78.198 228.312 78.832 227.993 79.449 227.518V227.518C79.949 227.133 80.355 226.706 80.666 226.237 80.967 225.766 81.163 225.302 81.253 224.843 81.337 224.389 81.35 223.924 81.292 223.446 81.239 222.974 81.121 222.534 80.94 222.125ZM92.881 231.661V231.661C93.839 232.616 94.504 233.657 94.877 234.782 95.245 235.902 95.286 237.032 95 238.173 94.713 239.324 94.097 240.373 93.151 241.321V241.321C92.19 242.284 91.128 242.927 89.963 243.25 88.803 243.579 87.638 243.57 86.468 243.224 85.302 242.873 84.225 242.205 83.238 241.22V241.22C82.588 240.571 82.071 239.857 81.689 239.079 81.311 238.296 81.082 237.484 81.002 236.641 80.927 235.793 81.062 234.923 81.408 234.03 81.75 233.142 82.309 232.309 83.087 231.529V231.529C84.052 230.562 85.115 229.923 86.275 229.615 87.43 229.301 88.578 229.322 89.718 229.678 90.864 230.039 91.918 230.7 92.881 231.661ZM92.103 234.183C91.879 233.801 91.606 233.449 91.284 233.127 90.966 232.81 90.619 232.543 90.242 232.325 89.865 232.098 89.458 231.929 89.021 231.821 88.575 231.712 88.126 231.675 87.675 231.711 87.229 231.751 86.768 231.885 86.292 232.114 85.812 232.347 85.358 232.677 84.932 233.104V233.104C83.912 234.127 83.41 235.26 83.426 236.504 83.438 237.754 83.917 238.851 84.865 239.797V239.797C85.257 240.189 85.701 240.503 86.197 240.741 86.693 240.978 87.224 241.131 87.789 241.2 88.354 241.259 88.947 241.167 89.566 240.923 90.191 240.674 90.778 240.275 91.328 239.724V239.724C91.773 239.277 92.12 238.801 92.367 238.295 92.605 237.789 92.738 237.303 92.767 236.837 92.792 236.376 92.744 235.912 92.625 235.446 92.51 234.985 92.336 234.564 92.103 234.183ZM91.895 248.894L100.174 238.492 102.017 239.959 95.088 248.666 100.363 252.864 99.013 254.559ZM106.62 259.329L113.236 247.799 115.717 249.223 115.749 258.044 123.435 253.651 125.798 255.007 119.181 266.537 117.138 265.365 122.09 256.735 115.758 260.183 113.824 259.074 113.615 251.872 108.663 260.502ZM122.749 267.948L132.59 257.574 134.982 258.533 134.911 272.829 132.666 271.928 132.576 268.141 127.54 266.12 124.867 268.798ZM129.104 264.425L132.618 265.835 132.698 260.552ZM138.149 273.709L141.759 260.914 144.259 261.619 148.632 273.464 151.405 263.636 153.672 264.275 150.063 277.07 147.532 276.356 143.195 264.499 140.416 274.348ZM153.823 277.61L160.939 265.206 163.489 265.575 166.793 279.484 164.399 279.138 163.418 275.479 158.047 274.703 156.082 277.937ZM159.167 272.686L162.915 273.228 161.746 268.075ZM182.712 272.596L182.522 278.072C181.184 279.436 179.313 280.076 176.909 279.993V279.993C175.886 279.957 174.959 279.792 174.127 279.496 173.288 279.201 172.593 278.822 172.041 278.361 171.488 277.907 171.03 277.375 170.665 276.766 170.293 276.164 170.03 275.541 169.877 274.897 169.724 274.247 169.66 273.585 169.683 272.912V272.912C169.707 272.212 169.829 271.535 170.048 270.883 170.26 270.238 170.583 269.636 171.016 269.075 171.442 268.515 171.95 268.031 172.54 267.623 173.136 267.216 173.845 266.904 174.666 266.687 175.495 266.47 176.392 266.378 177.359 266.412V266.412C179.118 266.473 180.688 266.92 182.069 267.754V267.754L182.389 267.954 181.347 269.77 181.017 269.58C180.583 269.341 180.037 269.122 179.377 268.923 178.718 268.718 178.048 268.604 177.368 268.58V268.58C176.71 268.557 176.068 268.64 175.444 268.829 174.821 269.011 174.26 269.283 173.764 269.644 173.267 269.999 172.866 270.458 172.558 271.023 172.244 271.587 172.075 272.213 172.051 272.9V272.9C172.02 273.804 172.23 274.628 172.681 275.374 173.133 276.112 173.768 276.695 174.588 277.124 175.415 277.559 176.351 277.795 177.395 277.831V277.831C178.544 277.871 179.492 277.644 180.239 277.151V277.151L180.327 274.597 176.165 274.453 176.237 272.371ZM196.368 278.918L187.065 279.619 186.066 266.363 195.369 265.662 195.531 267.822 188.589 268.345 188.829 271.534 195.258 271.049 195.421 273.209 188.992 273.694 189.262 277.281 196.205 276.758ZM201.054 277.985L198.455 264.948 201.26 264.389 207.085 271.013 209.986 262.649 212.657 262.116 215.257 275.154 212.946 275.614 211.001 265.857 208.499 272.619 206.312 273.055 201.419 267.767 203.364 277.525ZM229.082 270.48L220.233 273.434 216.025 260.823 224.874 257.87 225.56 259.925 218.955 262.129 219.967 265.162 226.083 263.121 226.769 265.176 220.653 267.217 221.792 270.629 228.396 268.425ZM233.374 268.465L227.761 256.414 230.116 255.317 241.159 261.439 236.847 252.182 238.983 251.187 244.596 263.238 242.212 264.348 231.189 258.194 235.51 267.47ZM241.49 252.024L240.333 250.192 250.491 243.782 251.647 245.615 247.565 248.191 253.503 257.601 251.511 258.859 245.572 249.448ZM260.382 235.641V235.641C261.335 234.846 262.394 234.205 263.558 233.718V233.718L263.924 233.55 264.729 235.714 264.387 235.862C263.322 236.348 262.431 236.889 261.715 237.486V237.486C261.015 238.07 260.509 238.684 260.197 239.328 259.889 239.977 259.885 240.482 260.186 240.843V240.843C260.379 241.074 260.66 241.187 261.029 241.18 261.398 241.174 261.812 241.085 262.271 240.912 262.725 240.734 263.219 240.528 263.753 240.292 264.278 240.056 264.82 239.836 265.381 239.633 265.952 239.431 266.498 239.287 267.019 239.199 267.545 239.108 268.064 239.14 268.578 239.296 269.082 239.451 269.52 239.752 269.893 240.199V240.199C270.135 240.49 270.324 240.816 270.461 241.177 270.592 241.542 270.654 241.956 270.647 242.418 270.645 242.886 270.559 243.364 270.39 243.851 270.216 244.343 269.917 244.871 269.493 245.435 269.067 246.009 268.526 246.569 267.869 247.117 267.217 247.661 266.576 248.09 265.945 248.406 265.314 248.723 264.608 249.015 263.827 249.282V249.282L263.481 249.393 262.639 247.151 263.009 247.02C264.58 246.441 265.758 245.823 266.545 245.168V245.168C267.282 244.553 267.788 243.944 268.062 243.341 268.331 242.733 268.311 242.244 268.001 241.872V241.872C267.83 241.668 267.608 241.543 267.333 241.498 267.058 241.453 266.758 241.471 266.432 241.551 266.101 241.635 265.741 241.757 265.353 241.916 264.971 242.07 264.575 242.241 264.165 242.428 263.749 242.619 263.332 242.803 262.912 242.979 262.489 243.15 262.063 243.29 261.635 243.401 261.207 243.501 260.797 243.556 260.402 243.565 260.018 243.575 259.639 243.499 259.266 243.335 258.892 243.172 258.56 242.915 258.268 242.565V242.565C257.549 241.704 257.37 240.63 257.731 239.343 258.087 238.051 258.971 236.817 260.382 235.641ZM273.071 233.338L264.551 232.021 266.473 230.003 272.656 230.982 271.426 224.801 273.29 222.843 274.899 231.418 279.4 235.705 277.572 237.624ZM277.821 216.73V216.73C278.589 215.756 279.492 214.909 280.531 214.192V214.192L280.854 213.951 282.089 215.901 281.785 216.117C280.844 216.813 280.085 217.527 279.508 218.26V218.26C278.944 218.976 278.576 219.681 278.404 220.376 278.238 221.075 278.339 221.569 278.708 221.86V221.86C278.945 222.047 279.243 222.099 279.603 222.016 279.962 221.933 280.348 221.76 280.762 221.496 281.169 221.228 281.61 220.924 282.083 220.583 282.547 220.243 283.033 219.916 283.54 219.601 284.056 219.285 284.56 219.031 285.052 218.837 285.547 218.639 286.062 218.563 286.597 218.609 287.122 218.656 287.613 218.86 288.07 219.22V219.22C288.368 219.455 288.621 219.734 288.829 220.059 289.033 220.389 289.179 220.781 289.268 221.235 289.362 221.693 289.378 222.178 289.314 222.69 289.245 223.207 289.062 223.786 288.763 224.425 288.466 225.075 288.053 225.735 287.523 226.407 286.998 227.074 286.46 227.627 285.908 228.067 285.356 228.507 284.726 228.939 284.017 229.363V229.363L283.702 229.542 282.414 227.524 282.749 227.319C284.166 226.427 285.191 225.579 285.824 224.774V224.774C286.419 224.02 286.787 223.319 286.93 222.673 287.068 222.023 286.946 221.548 286.566 221.249V221.249C286.357 221.084 286.113 221.008 285.835 221.021 285.557 221.034 285.267 221.113 284.965 221.259 284.658 221.41 284.332 221.604 283.985 221.84 283.643 222.07 283.291 222.319 282.928 222.587 282.561 222.86 282.191 223.126 281.817 223.386 281.438 223.64 281.05 223.866 280.654 224.063 280.257 224.25 279.867 224.389 279.483 224.479 279.109 224.568 278.723 224.572 278.324 224.489 277.924 224.407 277.546 224.225 277.188 223.943V223.943C276.306 223.249 275.909 222.235 275.995 220.902 276.076 219.564 276.685 218.174 277.821 216.73ZM282.935 213.565L281.093 212.424 287.423 202.216 289.264 203.358 286.72 207.46 296.177 213.325 294.935 215.327 285.479 209.463ZM304.339 198.07L300.129 206.395 288.266 200.394 292.477 192.07 294.41 193.048 291.267 199.261 294.121 200.704 297.03 194.951 298.964 195.929 296.054 201.682 299.264 203.305 302.406 197.092ZM305.964 193.577L293.462 189.059 294.434 186.369 303.116 184.809 297.458 178.001 298.383 175.439 310.886 179.956 310.085 182.172 300.728 178.791 305.222 184.429 304.464 186.526 297.408 187.98 306.765 191.361Z" fill="#00617e" data-fill-palette-color="quaternary"></path><path d="M44.407 96.647V96.647C44.77 95.461 45.307 94.346 46.016 93.302V93.302L46.23 92.96 48.087 94.333 47.881 94.644C47.255 95.632 46.806 96.573 46.532 97.464V97.464C46.265 98.336 46.177 99.126 46.267 99.836 46.364 100.548 46.637 100.973 47.086 101.11V101.11C47.374 101.199 47.671 101.139 47.977 100.932 48.282 100.725 48.58 100.424 48.87 100.029 49.153 99.632 49.454 99.189 49.772 98.7 50.082 98.216 50.417 97.735 50.776 97.258 51.143 96.777 51.521 96.358 51.91 96 52.3 95.636 52.753 95.379 53.268 95.229 53.775 95.083 54.306 95.096 54.863 95.266V95.266C55.225 95.377 55.561 95.547 55.873 95.774 56.183 96.009 56.461 96.321 56.707 96.712 56.961 97.105 57.15 97.552 57.276 98.053 57.399 98.56 57.437 99.165 57.389 99.87 57.347 100.583 57.2 101.348 56.949 102.166 56.701 102.977 56.398 103.687 56.043 104.297 55.687 104.907 55.255 105.537 54.748 106.188V106.188L54.518 106.47 52.588 105.053 52.826 104.741C53.825 103.397 54.475 102.236 54.775 101.257V101.257C55.056 100.339 55.147 99.552 55.047 98.898 54.94 98.242 54.656 97.843 54.193 97.701V97.701C53.938 97.623 53.684 97.64 53.429 97.753 53.175 97.866 52.933 98.045 52.704 98.29 52.472 98.541 52.238 98.84 52 99.185 51.764 99.523 51.526 99.883 51.284 100.264 51.041 100.651 50.792 101.033 50.537 101.409 50.275 101.784 49.995 102.134 49.697 102.461 49.394 102.779 49.08 103.049 48.755 103.272 48.439 103.491 48.08 103.634 47.678 103.701 47.276 103.768 46.857 103.735 46.421 103.602V103.602C45.349 103.273 44.612 102.471 44.211 101.197 43.803 99.92 43.868 98.404 44.407 96.647ZM50.639 81.14V81.14C51.198 79.854 51.951 78.737 52.899 77.788V77.788L53.172 77.528 54.731 79.008 54.472 79.286C53.619 80.23 52.996 81.152 52.605 82.052V82.052C52.297 82.759 52.128 83.466 52.097 84.171 52.066 84.876 52.159 85.513 52.378 86.082 52.591 86.649 52.904 87.151 53.317 87.591 53.723 88.028 54.2 88.365 54.746 88.602V88.602C55.312 88.848 55.904 88.964 56.522 88.95 57.14 88.935 57.734 88.8 58.304 88.543 58.874 88.286 59.413 87.882 59.921 87.331 60.425 86.785 60.844 86.13 61.176 85.365V85.365C61.585 84.426 61.825 83.415 61.899 82.331V82.331L61.931 81.966 63.954 82.008 63.951 82.385C63.945 83.858 63.643 85.283 63.045 86.659V86.659C62.578 87.733 61.992 88.633 61.287 89.358 60.579 90.09 59.819 90.616 59.007 90.936 58.189 91.253 57.337 91.402 56.45 91.384 55.56 91.356 54.681 91.154 53.813 90.777V90.777C52.932 90.394 52.184 89.881 51.568 89.239 50.946 88.594 50.485 87.862 50.183 87.043 49.885 86.218 49.769 85.296 49.837 84.278 49.905 83.26 50.172 82.214 50.639 81.14ZM64.019 67.953L59.381 65.279 60.557 63.238 72.075 69.878 70.898 71.919 65.896 69.035 62.345 75.194 67.347 78.078 66.17 80.119 54.653 73.48 55.83 71.439 60.468 74.112ZM67.819 53.481V53.481C68.644 52.409 69.59 51.615 70.658 51.101 71.722 50.592 72.838 50.407 74.006 50.545 75.183 50.681 76.303 51.158 77.364 51.974V51.974C78.442 52.804 79.217 53.775 79.687 54.889 80.161 55.997 80.302 57.154 80.109 58.359 79.911 59.56 79.386 60.713 78.535 61.819V61.819C77.975 62.547 77.334 63.15 76.612 63.63 75.883 64.105 75.107 64.436 74.281 64.623 73.45 64.807 72.57 64.784 71.64 64.555 70.716 64.331 69.817 63.883 68.945 63.212V63.212C67.861 62.378 67.092 61.406 66.637 60.295 66.178 59.19 66.052 58.049 66.258 56.872 66.469 55.69 66.989 54.559 67.819 53.481ZM70.419 53.93C70.07 54.2 69.756 54.516 69.478 54.877 69.204 55.233 68.984 55.612 68.816 56.014 68.639 56.417 68.524 56.842 68.472 57.288 68.422 57.745 68.443 58.195 68.536 58.638 68.633 59.075 68.825 59.515 69.113 59.957 69.406 60.404 69.792 60.811 70.27 61.179V61.179C71.414 62.06 72.603 62.412 73.835 62.237 75.073 62.065 76.1 61.449 76.916 60.387V60.387C77.254 59.948 77.509 59.468 77.681 58.945 77.853 58.423 77.936 57.877 77.932 57.308 77.918 56.739 77.751 56.164 77.43 55.581 77.103 54.993 76.631 54.462 76.014 53.988V53.988C75.514 53.603 74.997 53.32 74.464 53.14 73.932 52.969 73.433 52.899 72.967 52.93 72.506 52.965 72.053 53.072 71.606 53.25 71.163 53.423 70.768 53.649 70.419 53.93ZM80.181 39.817V39.817C81.138 38.861 82.18 38.197 83.306 37.827 84.427 37.461 85.557 37.423 86.697 37.711 87.847 38 88.895 38.618 89.841 39.566V39.566C90.802 40.529 91.443 41.593 91.764 42.759 92.09 43.919 92.079 45.084 91.731 46.254 91.378 47.419 90.707 48.494 89.719 49.48V49.48C89.069 50.128 88.355 50.643 87.576 51.024 86.792 51.4 85.979 51.627 85.136 51.706 84.288 51.779 83.418 51.642 82.526 51.294 81.639 50.951 80.807 50.39 80.029 49.611V49.611C79.063 48.643 78.427 47.579 78.121 46.418 77.81 45.263 77.833 44.115 78.192 42.975 78.555 41.83 79.218 40.777 80.181 39.817ZM82.701 40.6C82.319 40.823 81.967 41.095 81.644 41.417 81.326 41.734 81.058 42.081 80.84 42.457 80.611 42.834 80.442 43.24 80.333 43.677 80.223 44.123 80.186 44.571 80.22 45.023 80.259 45.469 80.392 45.93 80.62 46.406 80.852 46.887 81.182 47.341 81.608 47.768V47.768C82.628 48.791 83.76 49.295 85.005 49.281 86.254 49.273 87.353 48.795 88.301 47.849V47.849C88.693 47.458 89.008 47.015 89.247 46.519 89.485 46.024 89.639 45.493 89.709 44.928 89.769 44.363 89.678 43.771 89.436 43.151 89.189 42.526 88.79 41.938 88.24 41.387V41.387C87.795 40.94 87.319 40.593 86.814 40.344 86.308 40.106 85.822 39.971 85.356 39.941 84.895 39.916 84.432 39.962 83.966 40.081 83.504 40.194 83.083 40.368 82.701 40.6ZM97.41 42.301L89.132 31.9 90.975 30.433 97.904 39.139 103.179 34.941 104.529 36.636ZM110.979 32.651L104.363 21.12 106.844 19.696 114.476 24.121 114.562 15.268 116.924 13.912 123.541 25.443 121.497 26.615 116.545 17.986 116.327 25.192 114.394 26.302 108.071 22.849 113.023 31.478ZM125.95 24.593L125.889 10.293 128.281 9.333 138.112 19.712 135.867 20.613 133.185 17.938 128.148 19.96 128.068 23.743ZM128.106 17.653L131.62 16.243 128.026 12.37ZM140.418 19.151L136.808 6.356 139.308 5.651 149.227 13.463 146.454 3.635 148.721 2.995 152.331 15.789 149.801 16.503 139.906 8.662 142.685 18.511ZM154.903 15.501L158.218 1.591 160.768 1.222 167.873 13.628 165.479 13.973 163.503 10.742 158.132 11.517 157.162 15.175ZM158.636 9.266L162.383 8.725 159.804 4.114ZM182.277 5.805L182.467 11.282C181.227 12.735 179.405 13.503 177.001 13.587V13.587C175.978 13.622 175.042 13.521 174.192 13.284 173.335 13.047 172.614 12.718 172.032 12.296 171.449 11.881 170.955 11.383 170.548 10.801 170.136 10.226 169.831 9.622 169.633 8.991 169.436 8.352 169.325 7.696 169.302 7.024V7.024C169.278 6.323 169.352 5.64 169.526 4.974 169.692 4.316 169.972 3.693 170.366 3.104 170.752 2.515 171.225 1.997 171.785 1.549 172.352 1.102 173.037 0.741 173.842 0.468 174.653 0.194 175.542 0.041 176.509 0.007V0.007C178.268-0.054 179.865 0.283 181.301 1.019V1.019L181.634 1.197 180.72 3.081 180.378 2.914C179.928 2.705 179.368 2.525 178.696 2.373 178.024 2.214 177.348 2.146 176.669 2.169V2.169C176.01 2.192 175.376 2.319 174.766 2.551 174.157 2.776 173.617 3.086 173.146 3.481 172.676 3.869 172.307 4.355 172.039 4.94 171.765 5.525 171.64 6.16 171.664 6.847V6.847C171.695 7.751 171.962 8.559 172.463 9.271 172.965 9.977 173.64 10.514 174.487 10.885 175.342 11.262 176.292 11.433 177.336 11.397V11.397C178.485 11.357 179.415 11.065 180.126 10.521V10.521L180.037 7.967 175.875 8.111 175.803 6.03ZM195.432 14.262L186.129 13.561 187.128 0.305 196.43 1.006 196.268 3.166 189.325 2.643 189.085 5.831 195.514 6.316 195.351 8.476 188.922 7.992 188.652 11.579 195.594 12.102ZM199.005 15.043L201.604 2.006 204.41 2.565 207.249 10.917 213.136 4.305 215.807 4.837 213.208 17.875 210.897 17.414 212.843 7.656 207.939 12.942 205.752 12.506 203.261 5.746 201.315 15.503ZM225.914 22.251L217.065 19.298 221.273 6.687 230.123 9.64 229.437 11.695 222.832 9.491 221.82 12.524 227.936 14.565 227.25 16.62 221.134 14.579 219.996 17.991 226.6 20.195ZM229.23 23.877L234.843 11.827 237.198 12.923 239.617 25.316 243.929 16.059 246.064 17.053 240.451 29.104 238.068 27.994 235.686 15.596 231.365 24.872ZM248.191 20.935L249.348 19.103 259.505 25.512 258.349 27.345 254.266 24.768 248.328 34.179 246.336 32.922 252.274 23.511ZM271.408 34.807V34.807C272.361 35.601 273.182 36.528 273.87 37.585V37.585L274.102 37.915 272.118 39.096 271.911 38.786C271.241 37.826 270.548 37.048 269.832 36.451V36.451C269.132 35.867 268.437 35.479 267.748 35.288 267.054 35.102 266.557 35.189 266.256 35.55V35.55C266.063 35.782 266.003 36.078 266.075 36.44 266.148 36.802 266.31 37.193 266.562 37.613 266.819 38.028 267.111 38.477 267.439 38.96 267.765 39.433 268.079 39.927 268.38 40.443 268.681 40.968 268.922 41.479 269.101 41.975 269.286 42.476 269.348 42.994 269.286 43.527 269.224 44.05 269.007 44.535 268.634 44.982V44.982C268.392 45.273 268.105 45.518 267.775 45.717 267.439 45.912 267.043 46.048 266.587 46.124 266.127 46.205 265.641 46.207 265.132 46.129 264.616 46.046 264.043 45.847 263.412 45.53 262.771 45.215 262.122 44.784 261.465 44.236 260.814 43.693 260.275 43.139 259.851 42.575 259.427 42.011 259.012 41.369 258.609 40.649V40.649L258.438 40.329 260.491 39.097 260.687 39.438C261.539 40.879 262.359 41.927 263.145 42.583V42.583C263.883 43.198 264.572 43.586 265.214 43.747 265.861 43.902 266.339 43.794 266.648 43.422V43.422C266.819 43.218 266.902 42.976 266.896 42.698 266.891 42.42 266.82 42.128 266.683 41.821 266.54 41.511 266.355 41.179 266.129 40.826 265.909 40.478 265.669 40.119 265.412 39.749 265.149 39.374 264.893 38.997 264.645 38.616 264.4 38.23 264.186 37.836 264 37.435 263.824 37.033 263.696 36.638 263.616 36.252 263.537 35.876 263.545 35.49 263.638 35.093 263.732 34.696 263.924 34.323 264.216 33.973V33.973C264.935 33.111 265.959 32.742 267.289 32.865 268.624 32.983 269.997 33.63 271.408 34.807ZM275.137 48.426L276.869 39.981 278.791 41.999 277.51 48.127 283.745 47.201 285.609 49.159 276.965 50.346 272.464 54.632 270.636 52.713ZM291.403 56.344V56.344C292.171 57.319 292.782 58.395 293.236 59.572V59.572L293.394 59.943 291.209 60.687 291.07 60.341C290.614 59.263 290.098 58.358 289.521 57.626V57.626C288.957 56.91 288.357 56.387 287.722 56.056 287.082 55.731 286.577 55.713 286.208 56.004V56.004C285.971 56.191 285.851 56.468 285.847 56.837 285.843 57.206 285.921 57.622 286.081 58.086 286.246 58.545 286.439 59.044 286.659 59.585 286.881 60.116 287.085 60.664 287.273 61.23 287.459 61.807 287.588 62.356 287.661 62.879 287.738 63.408 287.691 63.926 287.521 64.435 287.352 64.935 287.039 65.364 286.582 65.724V65.724C286.284 65.959 285.953 66.139 285.589 66.265 285.22 66.386 284.804 66.437 284.342 66.417 283.875 66.401 283.4 66.303 282.917 66.12 282.43 65.933 281.911 65.619 281.359 65.179 280.797 64.738 280.252 64.181 279.722 63.509 279.198 62.843 278.786 62.19 278.487 61.55 278.189 60.91 277.917 60.197 277.671 59.409V59.409L277.57 59.06 279.834 58.28 279.955 58.654C280.49 60.24 281.075 61.435 281.708 62.24V62.24C282.302 62.994 282.897 63.517 283.492 63.807 284.092 64.093 284.582 64.086 284.962 63.787V63.787C285.171 63.622 285.302 63.403 285.354 63.13 285.407 62.856 285.398 62.556 285.327 62.228 285.252 61.894 285.14 61.531 284.992 61.139 284.848 60.753 284.688 60.352 284.513 59.937 284.333 59.516 284.161 59.094 283.997 58.67 283.838 58.241 283.709 57.812 283.611 57.381 283.522 56.951 283.479 56.539 283.481 56.144 283.481 55.76 283.568 55.383 283.742 55.015 283.916 54.646 284.182 54.32 284.54 54.038V54.038C285.421 53.344 286.499 53.195 287.776 53.591 289.057 53.983 290.266 54.901 291.403 56.344ZM293.75 63.54L295.592 62.399 301.921 72.606 300.08 73.748 297.536 69.645 288.079 75.509 286.838 73.507 296.294 67.643ZM295.849 90.065L291.638 81.74 303.501 75.74 307.712 84.064 305.778 85.042 302.636 78.829 299.783 80.272 302.693 86.025 300.759 87.003 297.849 81.25 294.64 82.874 297.782 89.087ZM297.029 93.527L309.532 89.009 310.504 91.7 304.824 98.449 313.527 100.068 314.453 102.63 301.95 107.147 301.15 104.932 310.507 101.55 303.447 100.087 302.69 97.99 307.187 92.361 297.829 95.742Z" fill="#00617e" data-fill-palette-color="quaternary"></path><path d="M41.545 141.981C41.545 139.146 43.844 136.848 46.679 136.848 49.514 136.848 51.812 139.146 51.812 141.981 51.812 144.816 49.514 147.114 46.679 147.114 43.844 147.114 41.545 144.816 41.545 141.981ZM306.588 141.981C306.588 139.146 308.886 136.848 311.721 136.848 314.556 136.848 316.855 139.146 316.855 141.981 316.855 144.816 314.556 147.114 311.721 147.114 308.886 147.114 306.588 144.816 306.588 141.981Z" fill="#00617e" data-fill-palette-color="quaternary"></path></svg></g></svg></g></svg></g><g></g></svg></g></svg></g></svg></g><defs></defs></svg><rect width="512" height="320" fill="none" stroke="none" visibility="hidden"></rect></g></svg></g></svg>